<svg class="wptb-draggable-prototype" xmlns="http://www.w3.org/2000/svg" width="40" height="50" viewBox="0 0 65 65"><path d="M64.5 24.1c0 3.8-3.1 6.9-6.9 6.9H7.4C3.6 31 0.5 27.9 0.5 24.1V6.9C0.5 3.1 3.6 0 7.4 0h50.1C61.4 0 64.5 3.1 64.5 6.9V24.1zM60.5 6.9C60.5 5.3 59.2 4 57.6 4H7.4C5.8 4 4.5 5.3 4.5 6.9v17.1c0 1.6 1.3 2.9 2.9 2.9h50.1c1.6 0 2.9-1.3 2.9-2.9L60.5 6.9 60.5 6.9z"/><path d="M64.5 58.1c0 3.8-3.1 6.9-6.9 6.9H7.4C3.6 65 0.5 61.9 0.5 58.1V40.9C0.5 37.1 3.6 34 7.4 34h50.1c3.8 0 6.9 3.1 6.9 6.9L64.5 58.1 64.5 58.1zM60.5 40.9c0-1.6-1.3-2.9-2.9-2.9H7.4C5.8 38 4.5 39.3 4.5 40.9v17.1c0 1.6 1.3 2.9 2.9 2.9h50.1c1.6 0 2.9-1.3 2.9-2.9L60.5 40.9 60.5 40.9z"/><path d="M8.5 16c-0.6 0-1-0.4-1-1v-1.8C7.5 10.4 9.8 8 12.4 8h6.2c0.6 0 1 0.4 1 1s-0.4 1-1 1h-6.2c-1.6 0-2.9 1.7-2.9 3.2V15C9.5 15.6 9.1 16 8.5 16z"/><path d="M8.6 19.4c-0.3 0-0.5-0.1-0.7-0.3 -0.2-0.2-0.3-0.4-0.3-0.7 0-0.3 0.1-0.5 0.3-0.7 0.4-0.4 1-0.4 1.4 0 0.2 0.2 0.3 0.5 0.3 0.7 0 0.3-0.1 0.5-0.3 0.7C9.1 19.3 8.9 19.4 8.6 19.4z"/></svg>