<svg version="1.1" id="Capa_1" xmlns="http://www.w3.org/2000/svg" xmlns:xlink="http://www.w3.org/1999/xlink" x="0px" y="0px"
	 width="40px" height="50px" viewBox="0 0 490.667 490.667" style="enable-background:new 0 0 490.667 490.667;" xml:space="preserve">
<g>
	<g>
		<path d="M245.333,0C110.059,0,0,110.059,0,245.333s110.059,245.333,245.333,245.333s245.333-110.059,245.333-245.333
			S380.608,0,245.333,0z M256,21.867c114.987,5.461,207.339,97.792,212.8,212.8h-64c-5.291-79.723-69.077-143.509-148.8-148.8
			V21.867z M384,245.333C384,321.792,321.792,384,245.333,384s-138.667-62.208-138.667-138.667s62.208-138.667,138.667-138.667
			S384,168.875,384,245.333z M245.333,469.333c-123.52,0-224-100.48-224-224c0-119.915,94.784-217.835,213.333-223.467v64
			c-83.264,5.525-149.333,74.816-149.333,159.467c0,88.235,71.765,160,160,160c40.277,0,77.013-15.061,105.173-39.723l45.227,45.227
			C355.947,447.061,303.253,469.333,245.333,469.333z M410.816,395.755l-45.227-45.227c22.464-25.643,36.8-58.432,39.189-94.528h64
			C466.24,309.717,444.8,358.421,410.816,395.755z"/>
	</g>
</g>
</svg>
