<svg viewBox="0 0 32 32" width="40px" height="50px" xmlns="http://www.w3.org/2000/svg"><g id="Layer_2" data-name="Layer 2"><path d="m27.465 1.5h-22.93a3.038 3.038 0 0 0 -3.035 3.035v22.93a3.038 3.038 0 0 0 3.035 3.035h22.93a3.038 3.038 0 0 0 3.035-3.035v-22.93a3.038 3.038 0 0 0 -3.035-3.035zm-22.93 1h22.93a2.037 2.037 0 0 1 2.035 2.035v2.965h-27v-2.965a2.037 2.037 0 0 1 2.035-2.035zm22.93 27h-22.93a2.037 2.037 0 0 1 -2.035-2.035v-18.965h27v18.965a2.037 2.037 0 0 1 -2.035 2.035z"/><circle cx="26" cy="5" r="1"/><circle cx="22" cy="5" r="1"/><circle cx="18" cy="5" r="1"/><path d="m11.979 14.646a.5.5 0 0 0 -.708 0l-3.5 3.5a.5.5 0 0 0 0 .708l3.5 3.5a.5.5 0 0 0 .708-.708l-3.147-3.146 3.147-3.146a.5.5 0 0 0 0-.708z"/><path d="m20.729 14.646a.5.5 0 0 0 -.708.708l3.147 3.146-3.147 3.146a.5.5 0 0 0 .708.708l3.5-3.5a.5.5 0 0 0 0-.708z"/><path d="m17.974 14.553a.5.5 0 0 0 -.671.223l-3.5 7a.5.5 0 1 0 .894.448l3.5-7a.5.5 0 0 0 -.223-.671z"/></g></svg>