<svg class="wptb-draggable-prototype" xmlns="http://www.w3.org/2000/svg" viewBox="0 0 512 512" width="40px" height="50px">
<path d="M469.3 0H42.7C19.1 0 0 19.1 0 42.7v426.7C0 492.9 19.1 512 42.7 512h426.7C492.9 512 512 492.9 512 469.3V42.7C512 19.1 492.9 0 469.3 0zM494.9 469.3c0 14.1-11.5 25.6-25.6 25.6H42.7c-14.1 0-25.6-11.5-25.6-25.6V42.7c0-14.1 11.5-25.6 25.6-25.6h426.7c14.1 0 25.6 11.5 25.6 25.6V469.3z"/><path d="M119.5 230.4c-14.1 0-25.6 11.5-25.6 25.6s11.5 25.6 25.6 25.6 25.6-11.5 25.6-25.6S133.6 230.4 119.5 230.4zM119.5 264.5c-4.7 0-8.5-3.8-8.5-8.5s3.8-8.5 8.5-8.5S128 251.3 128 256 124.2 264.5 119.5 264.5z"/><path d="M409.6 247.5H170.7c-4.7 0-8.5 3.8-8.5 8.5s3.8 8.5 8.5 8.5H409.6c4.7 0 8.5-3.8 8.5-8.5S414.3 247.5 409.6 247.5z"/><path d="M119.5 110.9c-14.1 0-25.6 11.5-25.6 25.6s11.5 25.6 25.6 25.6 25.6-11.5 25.6-25.6S133.6 110.9 119.5 110.9zM119.5 145.1c-4.7 0-8.5-3.8-8.5-8.5s3.8-8.5 8.5-8.5 8.5 3.8 8.5 8.5S124.2 145.1 119.5 145.1z"/><path d="M409.6 128H170.7c-4.7 0-8.5 3.8-8.5 8.5s3.8 8.5 8.5 8.5H409.6c4.7 0 8.5-3.8 8.5-8.5S414.3 128 409.6 128z"/><path d="M119.5 349.9c-14.1 0-25.6 11.5-25.6 25.6s11.5 25.6 25.6 25.6 25.6-11.5 25.6-25.6S133.6 349.9 119.5 349.9zM119.5 384c-4.7 0-8.5-3.8-8.5-8.5s3.8-8.5 8.5-8.5 8.5 3.8 8.5 8.5S124.2 384 119.5 384z"/><path d="M409.6 366.9H170.7c-4.7 0-8.5 3.8-8.5 8.5s3.8 8.5 8.5 8.5H409.6c4.7 0 8.5-3.8 8.5-8.5S414.3 366.9 409.6 366.9z"/></svg>