<svg
   xmlns:dc="http://purl.org/dc/elements/1.1/"
   xmlns:cc="http://creativecommons.org/ns#"
   xmlns:rdf="http://www.w3.org/1999/02/22-rdf-syntax-ns#"
   xmlns:svg="http://www.w3.org/2000/svg"
   xmlns="http://www.w3.org/2000/svg"
   id="svg8"
   version="1.1"
   viewBox="0 0 40 50"
   height="50"
   width="40">
  <defs
     id="defs2" />
  <metadata
     id="metadata5">
    <rdf:RDF>
      <cc:Work
         rdf:about="">
        <dc:format>image/svg+xml</dc:format>
        <dc:type
           rdf:resource="http://purl.org/dc/dcmitype/StillImage" />
        <dc:title></dc:title>
      </cc:Work>
    </rdf:RDF>
  </metadata>
  <g
     transform="translate(0,-283.77082)"
     id="layer1">
    <g
       transform="rotate(2.2844095,30.416572,302.78502)"
       id="g60">
      <path
         style=""
         d="m 20.085673,285.71878 c -0.354105,1.7e-4 -1.263563,1.8917 -1.613282,1.94726 -0.349719,0.0556 -1.799997,-1.46114 -2.136718,-1.35156 -0.336723,0.10959 -0.616207,2.19065 -0.931641,2.35156 -0.315433,0.16092 -2.164795,-0.83522 -2.451172,-0.62695 -0.286378,0.20827 0.09012,2.27488 -0.160156,2.52539 -0.25027,0.25051 -2.315438,-0.12642 -2.523438,0.16016 -0.208001,0.28657 0.789517,2.13558 0.628907,2.45117 -0.16061,0.31559 -2.242299,0.59676 -2.3515626,0.93359 -0.1092636,0.33682 1.410696,1.78695 1.3554688,2.13672 -0.055227,0.34977 -1.9474348,1.26113 -1.9472657,1.61524 1.693e-4,0.3541 1.8917044,1.26356 1.9472657,1.61328 0.055561,0.34972 -1.4611478,1.8 -1.3515625,2.13672 0.1095854,0.33672 2.1906513,0.61621 2.3515623,0.93164 0.160911,0.31544 -0.835228,2.16479 -0.626953,2.45117 0.208274,0.28638 2.274881,-0.0901 2.52539,0.16015 0.250509,0.25027 -0.12642,2.31544 0.160157,2.52344 0.286576,0.208 2.135584,-0.78951 2.451171,-0.6289 0.315588,0.16061 0.596768,2.2423 0.933594,2.35156 0.336827,0.10927 1.786947,-1.4107 2.136719,-1.35547 0.349772,0.0552 1.261129,1.94744 1.615234,1.94727 0.354105,-1.6e-4 1.263563,-1.89171 1.613282,-1.94727 0.349719,-0.0556 1.799997,1.46114 2.136718,1.35156 0.336723,-0.10959 0.616207,-2.19065 0.931641,-2.35156 0.315433,-0.16092 2.164795,0.83522 2.451172,0.62695 0.286377,-0.20827 -0.09012,-2.27488 0.160156,-2.52539 0.25027,-0.25051 2.315437,0.12643 2.523438,-0.16015 0.208001,-0.28657 -0.789517,-2.13559 -0.628907,-2.45118 0.16061,-0.31559 2.242299,-0.59676 2.351563,-0.93359 0.109264,-0.33682 -1.410696,-1.78695 -1.355469,-2.13672 0.05523,-0.34977 1.947435,-1.26112 1.947266,-1.61523 -1.69e-4,-0.3541 -1.891705,-1.26356 -1.947266,-1.61328 -0.05556,-0.34972 1.461148,-1.8 1.351563,-2.13672 -0.109586,-0.33672 -2.190651,-0.61621 -2.351563,-0.93164 -0.160911,-0.31544 0.835228,-2.1648 0.626953,-2.45118 -0.208274,-0.28638 -2.274881,0.0901 -2.52539,-0.16015 -0.250509,-0.25027 0.12642,-2.31544 -0.160157,-2.52344 -0.286577,-0.208 -2.135584,0.78952 -2.451171,0.62891 -0.315588,-0.16061 -0.596768,-2.24231 -0.933594,-2.35157 -0.336827,-0.10927 -1.786948,1.4107 -2.136719,1.35547 -0.349772,-0.0552 -1.261129,-1.94742 -1.615234,-1.94726 z m 0.0059,3.45703 a 8.6797902,8.6797902 0 0 1 8.679688,8.67969 8.6797902,8.6797902 0 0 1 -8.679688,8.67968 8.6797902,8.6797902 0 0 1 -8.679688,-8.67968 8.6797902,8.6797902 0 0 1 8.679688,-8.67969 z m 0,1.48047 a 7.1985831,7.1985831 0 0 0 -7.199219,7.19922 7.1985831,7.1985831 0 0 0 7.199219,7.19922 7.1985831,7.1985831 0 0 0 7.199219,-7.19922 7.1985831,7.1985831 0 0 0 -7.199219,-7.19922 z"
         id="path18" />
      <path
         style=""
         d="m 13.757548,304.87307 a 9.4653218,9.4653218 0 0 0 6.333984,2.44727 9.4653218,9.4653218 0 0 0 0.248047,-0.008 l 0.08594,-0.26367 z m -1.556641,2.89063 -7.4550778,22.86133 4.9570312,-3.50781 2.2656246,5.86328 7.404297,-22.70313 c -0.394714,-0.5887 -0.816208,-1.27568 -1.037109,-1.31055 -0.381427,-0.0602 -1.962769,1.59768 -2.330079,1.47852 -0.367309,-0.11915 -0.673429,-2.38931 -1.017578,-2.56445 -0.344149,-0.17515 -2.359364,0.91237 -2.671875,0.68554 -0.106505,-0.0773 -0.121081,-0.41348 -0.115234,-0.80273 z"
         id="rect25" />
      <path
         style=""
         d="m 28.564188,305.70706 c -0.253055,0.005 -0.445442,0.0313 -0.513672,0.0996 -0.27292,0.27318 0.138466,2.52678 -0.173828,2.7539 -0.312295,0.22712 -2.329847,-0.85907 -2.673828,-0.68359 -0.343981,0.17547 -0.648428,2.44494 -1.015625,2.56445 -0.298346,0.0971 -1.389526,-0.96435 -1.996094,-1.33789 l 7.66211,21.72071 2.126953,-5.39649 5.380859,2.74805 -7.914062,-22.44141 c -0.313437,-0.0148 -0.629191,-0.0321 -0.882813,-0.0273 z"
         id="path31" />
    </g>
  </g>
</svg>
