<svg version="1.1" xmlns:xlink="http://www.w3.org/1999/xlink" 
     x="0px" y="0px" width="40px" height="50px" viewBox="0 0 1000 1000" 
     enable-background="new 0 0 1000 1000" xml:space="preserve">
    <path d="M10,67.6h172.9v57.6H67.6v749.4h115.3v57.6H10V67.6z 
        M817.1,67.6v57.6h115.3v749.4H817.1v57.6H990V67.6H817.1L817.1,67.6z 
        M522.1,469.3c-64.3-25-92.6-46.3-92.6-89.9c0-31.8,24.2-69.8,87.8-69.8c42.1,0,
        73.3,13.8,88.5,22.1l16.6-49.1c-20.7-11.8-55.3-22.8-103-22.8c-90.6,0-150.7,
        54-150.7,126.5c0,65.7,47,105.1,123.1,132.1c62.9,24.2,87.8,49.1,87.8,92.6c0,
        47-36,79.6-97.5,79.6c-41.5,0-80.9-13.8-107.9-30.4L359,710.5c24.9,16.5,74,
        29.7,118.9,29.7c109.9,0,163.2-62.2,163.2-134.1C641.1,537.6,600.9,499.7,
        522.1,469.3L522.1,469.3z"/>
</svg>