<svg xmlns="http://www.w3.org/2000/svg" id="_x31_" enable-background="new 0 0 24 24" viewBox="0 0 24 24" width="40px" height="50px"><g><g><g><path d="m16.636 20c-.083 0-.166-.021-.242-.062l-4.394-2.429-4.393 2.429c-.169.094-.374.082-.53-.029s-.236-.3-.205-.489l.844-5.178-3.573-3.663c-.131-.134-.176-.33-.117-.508.06-.178.214-.307.399-.335l4.919-.752 2.204-4.696c.164-.351.74-.351.904 0l2.204 4.696 4.919.752c.186.028.34.158.399.335.059.178.014.374-.117.508l-3.573 3.663.845 5.178c.031.189-.049.379-.205.489-.086.06-.187.091-.288.091zm-11.099-9.423 3.07 3.147c.111.113.161.273.136.43l-.719 4.411 3.733-2.064c.15-.083.334-.083.484 0l3.734 2.064-.72-4.411c-.025-.157.024-.316.136-.43l3.07-3.147-4.221-.645c-.165-.025-.307-.131-.377-.282l-1.863-3.973-1.865 3.973c-.07.151-.212.257-.377.282z" data-original="#000000" class="active-path" data-old_color="#000000" fill="#444444"/></g></g><g><g><path d="m21.5 24h-19c-1.379 0-2.5-1.122-2.5-2.5v-19c0-1.378 1.121-2.5 2.5-2.5h19c1.379 0 2.5 1.122 2.5 2.5v19c0 1.378-1.121 2.5-2.5 2.5zm-19-23c-.827 0-1.5.673-1.5 1.5v19c0 .827.673 1.5 1.5 1.5h19c.827 0 1.5-.673 1.5-1.5v-19c0-.827-.673-1.5-1.5-1.5z" data-original="#000000" class="active-path" data-old_color="#000000" fill="#444444"/></g></g></g> </svg>
