<?php 
//Text Icon
?>

<svg class="wptb-draggable-prototype" xmlns="http://www.w3.org/2000/svg" viewBox="0 0 512 512" width="40px" height="50px"><path d="M59.7 0h-51.2C3.8 0 0 3.8 0 8.5v51.2c0 4.7 3.8 8.5 8.5 8.5h51.2c4.7 0 8.5-3.8 8.5-8.5v-51.2C68.3 3.8 64.4 0 59.7 0zM51.2 51.2H17.1V17.1H51.2V51.2z"/><path d="M503.5 0h-51.2c-4.7 0-8.5 3.8-8.5 8.5v51.2c0 4.7 3.8 8.5 8.5 8.5h51.2c4.7 0 8.5-3.8 8.5-8.5v-51.2C512 3.8 508.2 0 503.5 0zM494.9 51.2H460.8V17.1h34.1V51.2z"/><path d="M59.7 443.7h-51.2c-4.7 0-8.5 3.8-8.5 8.5v51.2C0 508.2 3.8 512 8.5 512h51.2c4.7 0 8.5-3.8 8.5-8.5v-51.2C68.3 447.5 64.4 443.7 59.7 443.7zM51.2 494.9H17.1V460.8H51.2V494.9z"/><path d="M503.5 443.7h-51.2c-4.7 0-8.5 3.8-8.5 8.5v51.2c0 4.7 3.8 8.5 8.5 8.5h51.2c4.7 0 8.5-3.8 8.5-8.5v-51.2C512 447.5 508.2 443.7 503.5 443.7zM494.9 494.9H460.8V460.8h34.1V494.9z"/><path d="M477.9 51.2H460.8V34.1c0-4.7-3.8-8.5-8.5-8.5H59.7c-4.7 0-8.5 3.8-8.5 8.5V51.2H34.1c-4.7 0-8.5 3.8-8.5 8.5v392.5c0 4.7 3.8 8.5 8.5 8.5H51.2v17.1c0 4.7 3.8 8.5 8.5 8.5h392.5c4.7 0 8.5-3.8 8.5-8.5V460.8h17.1c4.7 0 8.5-3.8 8.5-8.5V59.7C486.4 55 482.6 51.2 477.9 51.2zM469.3 443.7h-17.1c-4.7 0-8.5 3.8-8.5 8.5v17.1H68.3v-17.1c0-4.7-3.8-8.5-8.5-8.5H42.7V68.3h17.1c4.7 0 8.5-3.8 8.5-8.5V42.7h375.5v17.1c0 4.7 3.8 8.5 8.5 8.5h17.1V443.7z"/><path d="M401.1 76.8H110.9c-4.7 0-8.5 3.8-8.5 8.5V153.6c0 4.7 3.8 8.5 8.5 8.5h34.1c4.7 0 8.5-3.8 8.5-8.5V128h76.8v256h-34.1c-4.7 0-8.5 3.8-8.5 8.5v34.1c0 4.7 3.8 8.5 8.5 8.5h119.5c4.7 0 8.5-3.8 8.5-8.5v-34.1c0-4.7-3.8-8.5-8.5-8.5H281.6V128h76.8v25.6c0 4.7 3.8 8.5 8.5 8.5h34.1c4.7 0 8.5-3.8 8.5-8.5V85.3C409.6 80.6 405.8 76.8 401.1 76.8zM392.5 145.1h-17.1v-25.6c0-4.7-3.8-8.5-8.5-8.5h-93.9c-4.7 0-8.5 3.8-8.5 8.5v273.1c0 4.7 3.8 8.5 8.5 8.5H307.2v17.1H204.8v-17.1h34.1c4.7 0 8.5-3.8 8.5-8.5V119.5c0-4.7-3.8-8.5-8.5-8.5h-93.9c-4.7 0-8.5 3.8-8.5 8.5v25.6h-17.1v-51.2h273.1V145.1z"/></svg>